<?xml version="1.0" standalone="no"?>
<!DOCTYPE svg PUBLIC "-//W3C//DTD SVG 20010904//EN"
 "http://www.w3.org/TR/2001/REC-SVG-20010904/DTD/svg10.dtd">
<svg version="1.0" xmlns="http://www.w3.org/2000/svg"
 width="1440.000000pt" height="779.000000pt" viewBox="0 0 1440.000000 779.000000"
 preserveAspectRatio="xMidYMid meet">

<g transform="translate(0.000000,779.000000) scale(0.100000,-0.100000)"
fill="#000000" stroke="none">
<path d="M0 3895 l0 -3895 7200 0 7200 0 0 3895 0 3895 -7200 0 -7200 0 0
-3895z m9174 2803 c3 -13 6 -38 6 -57 0 -19 5 -49 12 -68 10 -27 9 -38 -4 -65
l-16 -33 -12 30 c-6 17 -10 43 -7 59 3 22 -2 36 -19 53 -27 27 -31 43 -9 43 8
0 15 7 15 15 0 8 5 15 11 15 6 0 9 7 5 15 -3 8 -2 15 3 15 5 0 11 -10 15 -22z
m-3367 -40 c21 -12 41 -27 45 -34 4 -6 19 -15 33 -18 14 -4 25 -11 25 -16 0
-6 6 -10 14 -10 20 0 39 -27 32 -45 -5 -14 -9 -14 -31 2 -13 10 -25 23 -25 29
0 21 -28 36 -46 26 -14 -8 -23 -1 -49 32 -17 22 -39 40 -48 40 -10 -1 -17 2
-17 7 0 15 27 10 67 -13z m318 -218 c10 -16 -16 -43 -28 -31 -11 11 -2 41 12
41 5 0 13 -5 16 -10z m3057 -25 c-2 -14 -6 -25 -8 -25 -2 0 -4 11 -4 25 0 14
4 25 9 25 4 0 6 -11 3 -25z m-1545 -25 c7 -8 13 -22 13 -30 0 -19 -51 -123
-66 -132 -7 -4 -15 -24 -18 -43 -7 -36 -36 -60 -44 -37 -2 7 -8 9 -14 6 -5 -3
-20 4 -34 17 -13 13 -31 24 -40 25 -48 7 -80 90 -48 125 9 10 27 19 40 19 13
0 26 5 29 10 5 9 63 38 105 53 27 9 65 3 77 -13z m-1414 -92 c-14 -24 -63 21
-63 57 l0 28 34 -39 c19 -21 32 -42 29 -46z m-118 62 c3 -5 2 -10 -4 -10 -5 0
-13 5 -16 10 -3 6 -2 10 4 10 5 0 13 -4 16 -10z m174 -131 c-17 -33 -35 -11
-36 43 l-1 52 24 -39 c17 -28 20 -43 13 -56z m1921 87 c0 -9 -30 -14 -35 -6
-4 6 3 10 14 10 12 0 21 -2 21 -4z m977 -33 c-3 -10 -5 -4 -5 12 0 17 2 24 5
18 2 -7 2 -21 0 -30z m-2591 -46 c31 -20 60 -37 64 -37 4 0 10 -7 14 -15 3 -8
12 -15 20 -15 32 0 34 -53 4 -138 -18 -53 -20 -65 -8 -72 38 -23 12 -76 -40
-82 -31 -3 -34 0 -42 28 -4 17 -15 37 -23 44 -19 16 -19 34 0 50 8 7 15 19 15
26 0 17 -27 18 -33 2 -3 -8 -6 -5 -6 5 -1 10 -16 32 -35 50 -19 18 -36 43 -38
57 -2 14 -13 30 -28 37 -32 16 -47 54 -25 65 8 5 15 15 15 22 0 8 15 12 45 11
34 0 58 -10 101 -38z m2595 -153 c-7 -81 -16 -122 -31 -150 -12 -22 -32 -58
-45 -82 -19 -33 -22 -49 -15 -67 5 -14 7 -73 5 -132 -7 -148 -11 -183 -29
-237 -9 -26 -16 -58 -16 -71 0 -19 -5 -25 -22 -25 -20 0 -21 1 -3 20 16 18 17
22 2 38 -13 15 -13 19 -1 30 8 7 14 27 14 44 0 30 -1 31 -14 12 -16 -21 -17
-21 -39 55 -15 55 -36 70 -76 54 -24 -9 -31 -8 -35 4 -8 19 3 63 15 63 5 0 14
11 19 25 5 14 24 31 42 39 18 8 27 15 21 15 -16 1 -17 53 -1 69 9 9 6 12 -15
12 -20 0 -27 5 -27 20 0 24 37 60 62 60 10 0 18 5 18 10 0 14 -33 13 -48 -2
-9 -9 -12 -6 -12 14 0 17 7 27 20 31 11 3 20 12 20 20 0 8 11 18 25 21 13 3
30 16 36 28 7 12 29 39 51 58 28 27 38 44 38 67 0 26 8 59 27 113 14 40 22
-54 14 -156z m-2854 74 c-3 -8 -6 -5 -6 6 -1 11 2 17 5 13 3 -3 4 -12 1 -19z
m1913 9 c0 -4 -7 -10 -15 -13 -12 -5 -13 -10 -4 -20 6 -8 17 -14 25 -14 7 0
16 -5 20 -12 5 -8 -5 -9 -39 -5 -49 7 -107 0 -107 -13 0 -4 32 -8 72 -8 39 -1
76 -6 80 -10 8 -8 -114 -37 -192 -47 -14 -1 -34 -6 -44 -10 -15 -6 -17 -5 -11
5 4 7 8 25 9 39 1 21 6 26 28 26 14 -1 25 2 23 6 -3 3 7 12 20 19 18 9 23 19
19 32 -4 15 0 18 25 18 16 0 32 4 35 9 7 11 56 9 56 -2z m-2305 -17 c3 -5 -1
-10 -9 -10 -9 0 -16 5 -16 10 0 6 4 10 9 10 6 0 13 -4 16 -10z m72 -26 c-3 -3
-12 -4 -19 -1 -8 3 -5 6 6 6 11 1 17 -2 13 -5z m363 -28 c0 -7 11 -27 25 -46
13 -18 31 -57 40 -85 8 -29 21 -58 29 -64 8 -7 12 -21 8 -33 -3 -13 -1 -19 5
-15 11 7 58 -51 49 -60 -3 -3 -8 1 -11 9 -6 15 -54 16 -75 3 -5 -3 -12 6 -16
20 -3 14 -10 25 -15 25 -5 0 -9 18 -9 39 0 22 -4 42 -9 45 -14 9 -21 79 -9 93
7 9 7 13 -1 13 -6 0 -11 -5 -11 -10 0 -6 -8 -5 -20 2 -11 7 -20 18 -20 25 0 7
-7 13 -15 13 -21 0 -19 12 6 39 16 17 24 20 35 10 8 -6 14 -17 14 -23z m388 8
c5 -8 15 -17 23 -18 8 -2 33 -7 57 -11 40 -7 42 -9 42 -44 0 -21 -7 -46 -15
-57 -19 -26 -20 -74 0 -74 8 0 15 -4 15 -10 0 -5 4 -10 10 -10 6 0 9 5 8 11
-2 6 3 14 10 16 25 9 11 -32 -16 -45 -23 -10 -29 -10 -38 3 -14 19 -25 19 -17
0 6 -18 -24 -105 -38 -105 -14 0 -10 37 6 54 17 17 20 56 4 56 -5 0 -8 4 -5 9
8 13 -14 71 -27 71 -7 0 -6 4 2 9 12 8 12 12 2 25 -7 8 -19 12 -26 10 -9 -4
-12 1 -11 13 2 10 10 17 20 15 9 -2 16 3 16 11 0 9 -10 12 -33 9 l-33 -4 4 41
c4 43 23 55 40 25z m-866 -16 c4 -10 14 -9 47 0 23 7 51 10 63 6 20 -6 19 -7
-10 -20 -18 -7 -32 -18 -32 -24 0 -13 -97 -14 -105 0 -6 10 15 50 27 50 3 0 8
-5 10 -12z m2537 -26 c9 -16 3 -21 -41 -37 -47 -17 -49 -19 -33 -32 11 -7 27
-13 36 -13 10 0 21 -4 24 -10 7 -12 -39 -24 -61 -16 -18 7 -104 -22 -104 -34
0 -12 26 -19 49 -13 24 6 29 -12 5 -21 -9 -3 -39 -6 -69 -6 -33 0 -57 -5 -64
-14 -11 -14 -51 -11 -51 4 0 10 47 30 70 30 29 0 50 11 50 25 0 17 -71 8 -82
-9 -5 -7 -8 -6 -8 4 0 19 11 35 30 43 8 4 22 11 30 16 8 5 22 12 30 16 43 17
99 53 93 58 -3 4 -16 8 -27 9 -12 1 4 4 34 8 30 4 60 7 67 8 7 1 17 -6 22 -16z
m-1005 -11 c3 -4 19 -11 36 -15 27 -5 31 -10 28 -33 -2 -18 -10 -29 -23 -32
-11 -2 -23 -7 -26 -12 -3 -5 -12 -1 -21 8 -18 22 -39 79 -31 87 9 9 31 7 37
-3z m-1107 -63 c-3 -8 -6 -5 -6 6 -1 11 2 17 5 13 3 -3 4 -12 1 -19z m-322
-10 c9 -9 -64 -20 -77 -12 -6 4 -8 3 -4 -4 3 -6 -5 -12 -21 -15 -65 -12 -77 4
-21 27 29 13 112 15 123 4z m1105 2 c0 -5 -4 -10 -9 -10 -6 0 -13 5 -16 10 -3
6 1 10 9 10 9 0 16 -4 16 -10z m-1153 -46 c-3 -3 -12 -4 -19 -1 -8 3 -5 6 6 6
11 1 17 -2 13 -5z m-163 -38 c-4 -11 -17 -16 -48 -15 -27 1 -33 3 -16 6 13 3
33 11 44 19 23 16 29 13 20 -10z m116 0 c6 -8 18 -12 26 -9 8 3 21 2 31 -1 14
-6 14 -8 -3 -21 -18 -13 -18 -14 10 -25 16 -6 40 -23 53 -38 23 -27 23 -27 3
-43 -16 -14 -27 -15 -62 -7 -24 5 -116 10 -205 11 -90 1 -163 4 -163 7 0 3 20
14 45 24 25 11 45 22 45 26 0 4 17 14 38 23 20 9 57 28 82 42 50 28 82 32 100
11z m3040 -6 c0 -5 -4 -10 -10 -10 -5 0 -10 5 -10 10 0 6 5 10 10 10 6 0 10
-4 10 -10z m-577 -7 c-7 -2 -19 -2 -25 0 -7 3 -2 5 12 5 14 0 19 -2 13 -5z
m-1666 -115 c-3 -8 -6 -5 -6 6 -1 11 2 17 5 13 3 -3 4 -12 1 -19z m263 -8 c0
-5 -7 -10 -15 -10 -8 0 -15 5 -15 10 0 6 7 10 15 10 8 0 15 -4 15 -10z m-1937
-29 c31 -12 39 -33 24 -65 -14 -29 -22 -33 -31 -11 -3 8 -15 15 -26 15 -15 0
-20 7 -20 28 0 43 10 49 53 33z m135 -113 c19 -16 14 -28 -11 -28 -13 0 -31
-6 -42 -13 -17 -13 -17 -14 1 -28 10 -8 19 -21 20 -29 2 -24 -48 -18 -79 10
-28 24 -62 78 -55 85 24 24 137 26 166 3z m1537 2 c3 -5 1 -10 -4 -10 -6 0
-11 5 -11 10 0 6 2 10 4 10 3 0 8 -4 11 -10z m1248 -57 c-7 -2 -13 -12 -13
-20 0 -9 -3 -14 -6 -10 -10 10 4 37 18 36 10 0 10 -2 1 -6z m-63 -47 c0 -27
-15 -42 -25 -26 -8 13 3 50 16 50 5 0 9 -11 9 -24z m-470 -2 c0 -8 -4 -12 -10
-9 -5 3 -10 10 -10 16 0 5 5 9 10 9 6 0 10 -7 10 -16z m1440 -40 c-18 -21 -24
-10 -9 18 8 14 14 18 17 10 2 -7 -2 -19 -8 -28z m-1420 -75 c-17 -41 -39 -45
-47 -9 -3 17 -9 30 -14 30 -5 0 -9 7 -9 16 0 11 6 14 21 9 17 -6 20 -3 17 12
-2 11 5 22 17 28 18 10 20 7 23 -23 2 -19 -2 -47 -8 -63z m1458 56 c-3 -3 -9
2 -12 12 -6 14 -5 15 5 6 7 -7 10 -15 7 -18z m-1985 -86 c-4 -33 -2 -49 6 -49
6 0 11 -5 11 -11 0 -6 -12 -9 -27 -7 -31 3 -31 7 -17 102 6 43 8 47 20 31 8
-11 11 -34 7 -66z m1167 62 c0 -5 -7 -14 -15 -21 -16 -14 -18 -10 -9 14 6 17
24 22 24 7z m880 -16 c0 -9 9 -15 22 -15 19 0 20 -2 6 -17 -16 -19 -20 -53 -6
-53 4 0 7 -5 6 -11 -3 -14 50 -31 65 -22 6 4 8 -1 4 -12 -4 -9 -2 -24 4 -31 9
-11 6 -14 -14 -14 -14 0 -29 4 -32 10 -3 5 -24 14 -45 20 -37 10 -56 30 -28
30 6 0 9 3 5 6 -3 4 1 13 9 22 18 17 7 32 -24 35 -19 1 -20 3 -6 18 10 12 12
19 4 24 -13 8 -3 25 16 25 8 0 14 -7 14 -15z m-1649 -18 c-10 -9 -11 -8 -5 6
3 10 9 15 12 12 3 -3 0 -11 -7 -18z m-981 3 c0 -5 -4 -10 -10 -10 -5 0 -10 5
-10 10 0 6 5 10 10 10 6 0 10 -4 10 -10z m1645 0 c-3 -5 -11 -10 -16 -10 -6 0
-7 5 -4 10 3 6 11 10 16 10 6 0 7 -4 4 -10z m-1318 -22 c-3 -8 -6 -5 -6 6 -1
11 2 17 5 13 3 -3 4 -12 1 -19z m163 -92 c-11 -11 -11 -12 -15 54 l-3 45 14
-45 c9 -29 11 -47 4 -54z m700 75 c0 -6 -4 -13 -10 -16 -5 -3 -10 1 -10 9 0 9
5 16 10 16 6 0 10 -4 10 -9z m598 -19 c2 -7 -7 -12 -23 -12 -22 0 -24 2 -13
15 15 16 30 15 36 -3z m-2882 0 c6 -4 17 -18 23 -30 12 -23 12 -24 -21 -17
-44 10 -48 13 -48 36 0 19 25 26 46 11z m2205 -59 c-9 -16 -11 -16 -19 7 -7
19 -6 29 7 44 15 18 16 17 19 -8 2 -14 -1 -33 -7 -43z m109 39 c0 -26 11 -34
27 -21 10 9 17 8 28 -1 12 -10 15 -10 15 4 0 9 7 16 16 16 13 0 15 -7 9 -37
-4 -21 -13 -51 -20 -68 -12 -28 -22 -57 -43 -130 -9 -32 -26 -37 -28 -8 -1 10
-6 29 -12 43 -9 23 -10 22 -17 -22 -9 -59 -25 -53 -23 7 3 52 -5 63 -29 44
-15 -12 -16 -12 -10 4 3 9 2 17 -4 17 -6 0 -9 21 -7 53 2 35 7 51 16 50 7 -2
12 7 12 22 0 14 5 25 10 25 6 0 10 -4 10 -10 0 -18 22 -10 27 10 7 25 23 26
23 2z m180 -52 c5 -3 10 -18 12 -34 3 -30 28 -50 28 -22 0 10 6 13 15 10 8 -4
15 -19 15 -34 0 -33 11 -43 35 -34 14 6 16 15 12 47 -4 26 -2 36 3 26 8 -12
13 -12 37 3 22 13 28 24 28 50 -1 44 15 58 68 58 55 0 103 -16 140 -47 32 -26
70 -29 107 -8 31 18 73 20 68 3 -3 -7 -14 -14 -25 -16 -12 -2 -24 -9 -26 -16
-4 -10 8 -15 40 -19 25 -2 58 -14 74 -26 28 -21 79 -29 79 -12 0 5 -4 11 -10
13 -6 2 -6 15 -2 33 8 29 11 30 66 30 32 0 60 5 64 11 11 18 162 2 162 -16 0
-5 -7 -16 -16 -25 -15 -15 -15 -17 5 -22 12 -3 29 -19 37 -35 14 -28 14 -31
-4 -48 -10 -10 -44 -24 -75 -31 -32 -6 -57 -16 -57 -22 0 -5 -17 -7 -37 -4
l-38 6 40 -14 40 -14 -55 4 c-75 6 -112 15 -132 33 -16 14 -18 13 -18 -1 0
-10 -4 -17 -10 -17 -5 0 -10 7 -10 15 0 19 -4 19 -40 0 -28 -14 -38 -34 -24
-47 3 -4 21 0 39 8 39 16 125 19 125 4 0 -5 14 -10 30 -10 17 0 30 -4 30 -10
0 -5 -10 -9 -22 -7 -14 1 -23 -4 -26 -15 -2 -11 3 -18 12 -18 9 0 16 4 16 9 0
11 58 12 65 1 2 -3 -6 -17 -19 -31 -23 -24 -23 -24 -3 -41 14 -13 16 -18 6
-18 -8 -1 -1 -8 14 -16 16 -9 35 -13 43 -10 8 3 14 2 14 -3 0 -5 -9 -11 -20
-14 -23 -6 -27 -37 -5 -37 9 0 18 -7 21 -15 5 -12 13 -10 48 10 29 17 58 25
90 25 42 0 46 2 32 15 -8 8 -29 15 -46 15 -26 0 -31 3 -26 17 5 11 0 23 -15
33 -19 15 -20 19 -8 39 13 20 19 22 64 16 28 -3 62 -2 75 4 25 9 25 9 -8 17
-22 4 -30 10 -24 16 7 7 23 6 46 -2 46 -15 66 -8 66 23 0 34 -22 49 -67 46
-21 -2 -44 1 -51 5 -19 11 -26 0 -26 -39 0 -30 -4 -35 -22 -35 -13 0 -26 -5
-29 -10 -6 -10 -56 -3 -65 10 -3 4 -18 10 -33 14 -16 4 -25 11 -21 17 3 6 12
8 20 5 18 -7 46 3 39 14 -6 10 51 31 59 23 3 -4 14 0 23 8 28 22 61 39 77 39
7 0 19 7 26 15 15 18 69 19 124 4 42 -12 65 3 44 28 -6 8 -8 17 -4 20 13 13
27 -21 22 -52 -3 -18 1 -38 9 -49 8 -11 15 -27 15 -35 1 -9 9 -34 20 -56 11
-22 19 -54 20 -71 0 -16 4 -34 9 -40 15 -16 22 -74 8 -75 -9 0 -9 -2 1 -6 20
-8 16 -90 -5 -102 -17 -9 -17 -11 1 -42 13 -23 16 -34 8 -37 -7 -2 -12 -11
-12 -19 0 -9 -6 -13 -14 -10 -10 4 -13 1 -9 -9 3 -8 -2 -25 -11 -39 -18 -27
-54 -33 -85 -13 -19 12 -19 12 0 40 20 27 20 28 2 52 -20 26 -65 46 -105 46
-14 0 -39 5 -57 11 -28 10 -32 15 -29 43 l3 31 -167 -2 c-156 -3 -168 -2 -168
15 0 10 5 23 11 29 17 17 -23 26 -57 12 -16 -6 -50 -17 -76 -23 -43 -12 -49
-11 -64 6 -16 17 -16 18 4 18 12 0 22 3 22 8 0 9 -63 10 -70 0 -3 -4 -27 -9
-52 -10 -25 -2 -44 -7 -41 -12 3 -4 -1 -13 -8 -18 -11 -7 -11 -11 -1 -15 18
-7 15 -20 -8 -26 -11 -3 -20 -10 -20 -17 0 -6 8 -9 18 -6 59 17 75 19 70 5 -3
-9 -24 -15 -63 -17 -32 -2 -66 -7 -77 -13 -24 -13 -37 -4 -31 21 4 14 0 20
-10 20 -20 0 -29 -30 -22 -67 3 -15 2 -21 -1 -13 -4 8 -15 21 -26 30 -18 15
-18 16 7 44 14 16 47 36 77 46 28 9 54 23 56 30 3 9 -2 11 -18 7 -21 -5 -21
-5 -5 13 11 12 13 20 5 25 -13 8 -40 -12 -40 -31 0 -16 -30 -33 -47 -27 -7 2
-10 10 -7 18 6 16 -12 29 -21 15 -3 -5 -15 -10 -27 -10 -15 0 -18 3 -10 13 17
20 -1 39 -31 31 -21 -5 -27 -2 -27 10 0 9 -5 16 -11 16 -6 0 -4 7 5 15 8 8 19
15 25 15 6 0 11 7 11 15 0 8 5 15 11 15 5 0 7 5 4 10 -10 16 -24 12 -47 -15
-26 -30 -38 -32 -38 -5 0 11 -4 20 -9 20 -4 0 -20 -9 -34 -20 -14 -11 -30 -20
-36 -20 -6 0 -11 -5 -11 -12 0 -6 -6 -4 -13 7 -8 10 -19 15 -25 11 -18 -11
-14 -26 6 -26 15 -1 15 -2 -2 -15 -11 -8 -23 -15 -27 -15 -12 0 -19 44 -9 54
6 6 10 18 10 28 0 10 8 31 17 45 l17 26 -27 -5 c-26 -5 -37 9 -19 26 4 4 8 22
9 39 0 18 3 41 5 52 2 12 -3 21 -12 21 -8 1 -22 2 -29 3 -11 1 -12 4 -4 12 6
6 9 28 6 50 -3 22 0 53 8 71 l13 32 14 -35 c8 -19 18 -36 22 -39z m860 58 c0
-4 -9 -8 -21 -8 -11 0 -18 4 -15 8 3 5 12 9 21 9 8 0 15 -4 15 -9z m135 1 c4
-6 14 -8 22 -4 13 4 14 3 4 -9 -10 -12 -16 -13 -32 -3 -15 9 -24 9 -40 -1 -27
-17 -38 -6 -13 13 23 17 50 19 59 4z m-1995 -13 c0 -2 -7 -6 -15 -10 -8 -3
-15 -1 -15 4 0 6 7 10 15 10 8 0 15 -2 15 -4z m643 -16 c-3 -11 -7 -20 -9 -20
-2 0 -4 9 -4 20 0 11 4 20 9 20 5 0 7 -9 4 -20z m-683 -71 c0 -6 -4 -7 -10 -4
-5 3 -10 11 -10 16 0 6 5 7 10 4 6 -3 10 -11 10 -16z m517 -11 c-3 -7 -5 -2
-5 12 0 14 2 19 5 13 2 -7 2 -19 0 -25z m-613 -35 c-10 -7 -20 -9 -23 -4 -4 5
-19 11 -35 13 -44 5 -46 28 -2 28 22 0 36 5 36 13 1 6 10 1 21 -13 20 -23 20
-25 3 -37z m711 48 c3 -5 1 -12 -5 -16 -5 -3 -10 1 -10 9 0 18 6 21 15 7z m73
-26 c-9 -9 -30 14 -23 25 6 9 10 8 17 -4 6 -10 8 -19 6 -21z m-1100 -5 c17
-11 32 -25 32 -31 0 -9 -59 20 -84 43 -19 16 19 8 52 -12z m1036 -68 c-3 -26
-13 -62 -21 -79 -8 -18 -13 -39 -10 -46 6 -15 -29 -41 -43 -32 -19 12 -10 43
18 67 24 20 27 29 24 71 -3 30 0 47 7 47 6 0 11 7 11 16 0 8 5 12 10 9 7 -4 8
-25 4 -53z m46 43 c0 -8 -4 -15 -10 -15 -5 0 -10 7 -10 15 0 8 5 15 10 15 6 0
10 -7 10 -15z m-358 -19 c19 18 19 18 12 -11 -7 -32 -22 -55 -34 -55 -11 0
-20 57 -12 77 6 15 7 15 10 -5 4 -23 4 -23 24 -6z m424 9 c-8 -22 4 -71 23
-92 22 -25 36 -49 64 -105 13 -26 27 -44 32 -40 4 4 3 -2 -3 -14 -8 -15 -8
-24 -1 -31 8 -8 6 -19 -6 -37 -17 -26 -35 -34 -35 -16 0 6 -5 10 -10 10 -6 0
-10 -8 -8 -17 2 -10 -4 -19 -14 -21 -14 -3 -18 3 -18 31 0 19 -7 40 -15 47
-17 14 -20 40 -5 40 6 0 10 5 10 10 0 6 -5 10 -10 10 -6 0 -24 10 -40 22 -28
20 -30 27 -30 85 0 49 4 65 16 70 9 3 14 13 11 24 -4 14 0 19 15 19 10 0 16 5
13 10 -3 6 -1 10 5 10 7 0 10 -7 6 -15z m-1256 -17 c0 -6 -6 -5 -15 2 -8 7
-15 14 -15 16 0 2 7 1 15 -2 8 -4 15 -11 15 -16z m718 -21 c7 -18 12 -38 12
-43 -1 -17 -40 41 -40 59 0 28 15 19 28 -16z m761 21 c-1 -7 -5 -24 -9 -38 -7
-22 -8 -21 -9 13 -1 20 4 37 9 37 6 0 10 -6 9 -12z m-1099 -18 c9 -16 8 -20
-5 -20 -8 0 -15 9 -15 20 0 11 2 20 5 20 2 0 9 -9 15 -20z m235 -17 c13 -16
24 -35 25 -43 0 -10 -3 -11 -8 -4 -4 6 -17 14 -29 18 -22 7 -37 32 -27 47 8
14 13 11 39 -18z m-970 -14 c10 -15 -1 -23 -20 -15 -9 3 -13 10 -10 16 8 13
22 13 30 -1z m252 -15 c-3 -3 -12 -4 -19 -1 -8 3 -5 6 6 6 11 1 17 -2 13 -5z
m935 -56 c0 -29 0 -60 -1 -68 -2 -8 -5 -30 -8 -49 -4 -22 -1 -36 8 -42 14 -8
25 -109 12 -109 -15 1 -47 85 -46 120 5 158 31 268 35 148z m641 8 c6 -36 5
-38 -8 -19 -8 11 -11 30 -8 42 7 28 9 25 16 -23z m-1830 -6 c29 -10 37 -30 11
-30 -25 0 -11 -23 24 -41 l32 -17 -26 -6 c-38 -10 -113 2 -161 26 -42 21 -55
37 -30 39 10 0 10 2 0 6 -7 2 -13 14 -13 25 0 15 5 19 18 16 11 -3 30 0 43 7
20 11 28 11 49 -1 14 -8 37 -18 53 -24z m1082 -28 c3 -12 1 -30 -4 -40 -6 -10
-11 -12 -11 -4 0 6 -6 12 -14 12 -11 0 -15 13 -14 52 l0 52 18 -25 c11 -13 22
-34 25 -47z m301 13 c-3 -16 -8 -39 -11 -51 -4 -13 0 -27 10 -38 9 -9 12 -16
6 -16 -6 0 -11 -16 -11 -35 0 -38 14 -47 23 -14 4 15 10 18 19 13 7 -5 26 -9
43 -9 25 0 32 -6 40 -31 5 -16 18 -43 29 -59 18 -28 18 -28 -3 -22 -25 6 -27
-9 -4 -35 10 -12 18 -42 21 -78 2 -33 8 -57 14 -54 5 3 14 -8 21 -25 13 -36
34 -40 47 -8 8 21 9 21 9 -5 1 -16 -3 -28 -9 -28 -5 0 -10 -5 -10 -11 0 -5 4
-7 10 -4 11 7 24 -39 16 -60 -3 -8 1 -34 10 -57 8 -25 11 -44 5 -47 -14 -9 11
-82 26 -77 7 3 15 1 18 -5 9 -14 -4 -49 -18 -46 -14 2 -10 -35 4 -44 6 -3 3
-11 -6 -19 -15 -13 -20 -5 -16 28 2 16 -18 16 -25 -1 -7 -19 13 -67 27 -67 16
0 69 -60 69 -77 0 -8 5 -11 10 -8 6 4 8 11 5 16 -4 5 3 9 13 9 11 0 23 -8 26
-17 8 -22 28 -56 45 -77 9 -10 12 -30 8 -56 -4 -30 -2 -40 8 -40 8 0 26 -11
41 -25 18 -17 22 -25 12 -25 -24 0 -16 -44 10 -55 12 -5 22 -18 22 -28 0 -13
5 -17 15 -13 19 7 19 1 -1 -18 -8 -9 -27 -16 -40 -16 -14 0 -22 -4 -19 -10 3
-5 19 -10 35 -10 16 0 31 -4 35 -9 3 -5 24 -8 46 -6 l41 4 -22 -24 c-21 -22
-14 -45 10 -30 14 9 12 -16 -4 -47 -16 -30 -10 -44 11 -26 19 15 26 4 29 -45
2 -32 6 -41 18 -39 10 2 16 -4 16 -18 0 -11 7 -20 15 -20 8 0 15 -4 15 -10 0
-5 -4 -10 -9 -10 -5 0 -11 -6 -14 -14 -8 -19 75 -13 105 8 28 20 12 20 -22 1
-41 -23 -47 -17 -10 10 19 14 28 25 20 25 -25 0 16 34 82 67 61 30 159 65 224
78 22 4 35 1 44 -10 11 -13 9 -15 -13 -15 -19 0 -26 -6 -30 -26 -4 -24 14 -54
34 -54 5 0 9 -4 9 -9 0 -4 -19 -5 -42 0 -30 5 -47 4 -56 -5 -15 -15 -6 -46 14
-46 8 0 14 -9 14 -19 0 -25 8 -30 67 -38 44 -6 47 -5 34 10 -10 13 -11 20 -2
30 6 8 8 16 5 19 -3 3 7 8 21 12 31 8 33 36 4 62 l-20 18 23 10 23 9 -23 5
c-32 5 -21 28 12 24 40 -4 31 6 -26 31 -53 23 -54 23 -134 7 -45 -9 -111 -32
-148 -50 -48 -25 -69 -31 -77 -23 -6 6 -19 9 -28 6 -13 -5 -14 -3 -3 8 18 19
15 29 -10 29 -17 0 -19 3 -10 12 17 17 15 29 -3 22 -29 -12 -8 59 27 90 25 23
33 39 35 70 2 22 7 44 12 49 6 6 0 20 -15 36 -26 28 -32 61 -11 61 21 1 -16
17 -54 24 -27 5 -38 13 -43 29 -11 41 -6 57 19 69 14 6 25 17 25 25 0 20 28
27 46 12 12 -10 17 -10 23 -1 8 13 26 10 69 -11 17 -8 25 -8 30 0 5 7 26 9 57
6 86 -9 125 -8 137 6 11 10 9 15 -5 26 -16 12 -21 11 -38 -6 -10 -10 -32 -19
-49 -19 -28 0 -29 2 -24 33 4 17 15 38 25 46 11 7 19 23 19 35 1 27 40 71 71
81 37 11 62 37 47 47 -8 6 1 6 22 2 19 -4 47 -6 63 -6 15 0 27 -3 27 -8 0 -5
23 -10 50 -12 55 -3 68 -20 21 -28 -29 -5 -29 -6 -12 -26 9 -12 27 -25 39 -28
12 -4 30 -18 41 -32 10 -13 27 -24 37 -24 9 0 15 -3 11 -6 -11 -11 64 -56 82
-48 9 4 25 7 36 8 11 1 26 13 33 30 12 24 12 33 1 55 -7 14 -15 29 -17 34 -2
4 3 7 12 7 8 0 19 8 25 17 7 14 13 15 33 6 32 -14 50 -88 33 -130 -7 -15 -11
-35 -10 -43 2 -12 -5 -15 -31 -12 -19 2 -40 0 -47 -6 -6 -6 -28 -13 -48 -17
-31 -6 -35 -10 -31 -31 4 -21 30 -53 39 -46 1 1 10 2 18 2 11 0 15 -11 15 -41
0 -33 6 -46 35 -73 34 -30 35 -33 18 -48 -10 -9 -28 -19 -40 -22 -28 -9 -28
-18 -5 -53 24 -38 43 -116 30 -124 -6 -4 -12 -39 -14 -79 -2 -43 -9 -80 -17
-89 -8 -9 -17 -23 -21 -31 -22 -49 -32 -57 -66 -56 -34 1 -60 -13 -60 -32 0
-5 9 -17 20 -27 11 -10 17 -21 12 -24 -5 -3 -11 -27 -14 -53 -5 -40 -3 -48 11
-49 10 0 11 -2 4 -6 -23 -9 -15 -42 12 -49 14 -3 25 -13 25 -23 0 -9 7 -27 16
-39 12 -17 12 -22 2 -22 -9 0 -12 -13 -9 -46 2 -32 0 -44 -8 -40 -6 4 -11 0
-11 -9 0 -9 -5 -13 -10 -10 -6 4 -17 1 -25 -5 -8 -6 -19 -9 -25 -5 -6 3 -10
-3 -10 -14 0 -14 5 -19 14 -15 11 4 13 0 9 -18 -4 -18 -2 -20 6 -8 8 12 12 9
20 -13 6 -15 16 -27 23 -27 7 0 33 -18 58 -39 36 -32 42 -41 32 -53 -6 -8 -9
-17 -6 -21 8 -8 -43 -33 -86 -42 -37 -8 -90 -34 -102 -50 -5 -6 -11 -6 -16 2
-5 8 -15 0 -32 -23 -18 -27 -21 -37 -11 -43 9 -6 4 -12 -17 -19 -25 -9 -33 -7
-46 7 -9 10 -16 23 -16 29 0 6 -9 17 -19 24 -17 12 -20 31 -26 138 -7 131 -23
199 -58 237 -18 21 -19 24 -5 40 28 32 37 183 19 294 -4 24 -42 49 -75 49 -20
0 -36 -3 -36 -7 0 -5 -22 -6 -50 -5 -55 4 -64 -7 -25 -32 33 -22 31 -33 -7
-41 -18 -4 -37 -10 -43 -14 -13 -9 -24 -8 -57 9 -16 7 -28 19 -28 27 0 15 -36
18 -45 3 -8 -12 -55 -13 -55 -1 0 14 -30 22 -47 12 -12 -6 -10 -10 13 -15 l29
-8 -25 -13 c-14 -7 -25 -22 -26 -32 -1 -10 -2 -32 -3 -50 0 -17 -8 -38 -16
-47 -8 -8 -15 -26 -15 -39 0 -16 -7 -26 -20 -30 -11 -3 -20 -12 -20 -20 0 -8
-21 -22 -47 -32 -27 -10 -54 -22 -60 -28 -13 -9 -76 14 -88 32 -3 5 -14 7 -25
4 -20 -5 -28 11 -11 21 5 3 12 38 16 77 9 85 -7 150 -46 196 -15 17 -30 41
-34 52 -3 12 -15 21 -26 21 -10 0 -19 6 -19 13 0 35 -183 68 -212 39 -8 -8
-17 -8 -30 -1 -12 6 -18 6 -18 -1 0 -5 -7 -10 -15 -10 -9 0 -41 -9 -73 -21
-31 -11 -63 -21 -69 -23 -36 -7 -62 -50 -83 -141 -21 -90 -21 -94 -4 -156 9
-35 24 -72 32 -81 14 -16 13 -18 -6 -18 -12 0 -22 5 -22 10 0 6 -9 10 -21 10
-11 0 -17 5 -14 10 3 6 -3 10 -14 10 -12 0 -21 -7 -21 -15 0 -26 -28 -28 -56
-6 l-27 21 38 0 c54 0 34 14 -21 15 -26 1 -49 8 -54 15 -4 7 -15 10 -23 7 -24
-9 -76 14 -74 34 1 12 13 19 41 23 27 5 36 10 29 17 -8 8 -17 7 -33 -1 -12 -6
-22 -10 -23 -8 -1 2 -8 13 -14 25 -7 13 -13 26 -13 29 0 4 6 2 13 -3 19 -15
56 -22 63 -12 7 12 -36 48 -58 49 -9 0 -20 5 -24 12 -5 7 0 9 14 6 18 -5 21
-1 24 26 2 26 8 32 31 34 31 4 35 16 10 31 -10 5 -15 13 -11 17 4 3 3 15 -2
24 -9 17 5 32 35 34 6 1 11 18 13 39 2 20 7 37 13 37 5 0 9 -4 9 -10 0 -5 5
-10 11 -10 6 0 9 6 6 13 -9 23 28 61 52 54 17 -4 21 -1 21 20 0 21 -4 25 -24
21 -21 -4 -23 -3 -13 13 12 20 39 11 55 -17 8 -15 11 -15 36 1 14 10 26 24 26
31 0 8 5 14 11 14 7 0 9 11 6 27 -3 16 1 32 9 40 20 20 17 43 -5 43 -10 0 -21
6 -24 13 -6 16 29 41 38 27 3 -6 1 -10 -6 -10 -7 0 -10 -2 -7 -5 9 -9 38 6 38
20 0 7 -7 15 -15 19 -22 8 -18 29 10 60 16 17 32 26 41 22 23 -9 37 3 23 20
-7 9 -20 12 -36 8 -23 -6 -24 -5 -11 15 7 11 16 21 19 21 4 0 5 9 2 20 -4 16
-2 19 11 14 11 -4 16 -1 16 10 0 9 5 16 10 16 6 0 10 -6 10 -14 0 -9 8 -12 25
-9 31 7 41 19 48 66 5 34 4 37 -18 37 -27 0 -35 -16 -28 -53 7 -34 -23 -38
-37 -4 -5 12 -9 19 -9 14 -1 -4 -13 0 -28 10 l-26 18 6 -33 c5 -24 3 -32 -8
-32 -15 0 -18 21 -20 122 0 20 -5 42 -11 48 -9 9 -4 25 17 63 16 29 29 61 30
72 0 11 3 14 6 8 2 -7 9 -13 15 -13 15 0 36 -25 35 -41 -3 -24 18 -25 21 -1 2
12 -1 22 -7 22 -5 0 -13 16 -17 35 -5 28 -10 34 -28 32 -18 -2 -21 3 -19 28
l2 30 -14 -30 c-8 -16 -14 -38 -15 -47 0 -31 -20 -30 -27 2 -4 25 -10 31 -24
27 -11 -3 -19 0 -19 6 0 6 -7 18 -16 28 -10 11 -14 25 -10 36 6 15 9 15 16 3
5 -8 12 -11 17 -6 4 4 0 12 -10 17 -28 16 -21 46 14 58 24 8 29 15 24 31 -5
15 3 28 29 52 l35 33 3 162 c2 114 6 163 14 163 7 0 12 6 11 13 0 6 1 45 1 86
2 66 4 72 18 60 11 -9 14 -23 10 -44z m-1106 12 c0 -5 7 -15 17 -22 9 -7 13
-17 9 -23 -10 -17 -46 -15 -46 3 0 8 -6 15 -14 15 -8 0 -23 3 -33 6 -10 3 -6
-3 10 -12 33 -23 35 -34 3 -34 -13 0 -26 -4 -28 -9 -1 -5 -16 -13 -32 -17 -24
-6 -28 -4 -23 9 3 9 2 19 -3 22 -19 12 -10 25 18 26 l27 2 -27 4 c-16 2 -28 9
-28 14 0 6 -4 8 -9 4 -5 -3 -12 -1 -16 5 -9 14 48 13 63 -2 9 -9 12 -7 12 8 0
12 2 23 5 26 9 8 95 -14 95 -25z m980 24 c0 -6 -4 -13 -10 -16 -5 -3 -10 1
-10 9 0 9 5 16 10 16 6 0 10 -4 10 -9z m-775 -41 c3 -5 1 -10 -4 -10 -6 0 -11
5 -11 10 0 6 2 10 4 10 3 0 8 -4 11 -10z m665 -19 c0 -10 -7 -21 -15 -25 -15
-5 -22 24 -8 37 12 13 23 7 23 -12z m-542 -11 c7 -12 18 -20 25 -18 7 1 26
-11 44 -27 48 -45 61 -55 73 -55 5 0 10 -4 10 -10 0 -13 -12 -13 -45 0 -18 7
-31 6 -45 -2 -14 -9 -25 -9 -44 0 -22 10 -26 9 -26 -3 0 -8 5 -15 10 -15 13 0
13 -12 0 -46 -8 -21 -14 -24 -22 -16 -7 7 -23 12 -36 12 -29 0 -24 24 6 28 21
3 21 5 6 33 -12 23 -20 29 -35 24 -15 -5 -22 -2 -26 14 -3 12 -11 21 -18 21
-7 0 -16 7 -19 16 -3 8 -10 12 -16 9 -5 -3 -10 0 -10 8 0 10 7 13 20 10 11 -3
20 -12 20 -20 0 -12 3 -13 14 -4 10 9 15 8 20 -4 10 -27 34 -16 52 25 20 46
24 48 42 20z m522 -71 c0 -11 -4 -17 -10 -14 -5 3 -10 15 -10 26 0 11 5 17 10
14 6 -3 10 -15 10 -26z m123 4 c-7 -3 -13 -21 -13 -41 0 -23 -3 -33 -10 -26
-6 6 -5 25 2 52 8 32 14 40 22 31 8 -8 8 -13 -1 -16z m227 -3 c0 -4 -7 -10
-15 -14 -11 -4 -15 2 -15 21 0 21 2 24 15 13 8 -7 15 -16 15 -20z m-439 -41
c-6 -16 -10 -18 -10 -7 -1 22 12 55 16 42 2 -6 -1 -22 -6 -35z m-921 12 c0 -5
-7 -11 -15 -15 -8 -3 -15 -10 -15 -16 0 -5 7 -10 15 -10 8 0 15 -4 15 -10 0
-16 56 -12 70 5 7 8 24 15 39 15 l26 -1 -28 -24 c-31 -28 -87 -33 -166 -14
-49 11 -75 -1 -53 -23 19 -19 14 -28 -18 -28 -16 0 -30 -5 -30 -11 0 -7 -11
-8 -31 -4 -26 6 -30 4 -27 -12 2 -14 -4 -19 -29 -21 -35 -3 -40 6 -23 39 10
17 7 20 -20 25 -44 9 -37 19 26 37 31 9 72 28 91 43 28 21 42 25 74 21 21 -3
42 -1 45 4 7 12 54 12 54 0z m1670 -1 c0 -5 -4 -10 -10 -10 -5 0 -10 5 -10 10
0 6 5 10 10 10 6 0 10 -4 10 -10z m1130 0 c0 -5 -9 -10 -21 -10 -11 0 -17 5
-14 10 3 6 13 10 21 10 8 0 14 -4 14 -10z m-2422 -26 c28 -20 28 -34 -1 -34
-31 0 -77 22 -77 38 0 17 51 15 78 -4z m195 -39 c10 -14 13 -25 7 -25 -14 0
-40 25 -40 39 0 18 14 12 33 -14z m1077 -12 c0 -7 -4 -13 -10 -13 -5 0 -10 12
-10 28 0 21 2 24 10 12 5 -8 10 -21 10 -27z m-1360 -11 c3 -3 -12 -2 -32 1
-29 4 -36 3 -31 -8 2 -8 15 -17 26 -21 22 -7 22 -7 2 -15 -28 -11 -37 -11 -30
1 3 6 0 10 -8 10 -14 0 -27 20 -27 40 0 21 78 14 100 -8z m626 -28 c-27 -27
-42 -3 -20 31 18 27 18 27 27 7 7 -15 5 -25 -7 -38z m588 41 c3 -8 1 -15 -4
-15 -6 0 -10 7 -10 15 0 8 2 15 4 15 2 0 6 -7 10 -15z m836 -5 c11 -11 33 -20
49 -20 32 0 54 -19 24 -21 -46 -4 -117 4 -137 14 -43 23 -33 35 37 46 4 0 16
-8 27 -19z m-1911 -25 c15 -5 20 -10 13 -17 -16 -16 -52 1 -52 25 0 13 3 17 8
11 4 -6 18 -15 31 -19z m-39 -32 c11 -10 20 -21 20 -25 0 -14 -54 3 -75 23
-19 19 -19 19 8 19 15 0 36 -8 47 -17z m2330 2 c0 -10 -10 -15 -34 -15 -61 0
-55 27 7 29 18 1 27 -4 27 -14z m-1250 -47 c0 -10 -4 -18 -10 -18 -5 0 -10 9
-10 19 0 11 -3 28 -6 38 -5 16 -4 16 10 -1 9 -11 16 -28 16 -38z m1010 42 c0
-5 -15 -10 -34 -10 -19 0 -38 5 -41 10 -4 6 10 10 34 10 23 0 41 -4 41 -10z
m-883 -77 c-3 -3 -11 -2 -17 2 -9 6 -9 10 1 16 14 8 27 -7 16 -18z m640 21
c-3 -3 -12 -4 -19 -1 -8 3 -5 6 6 6 11 1 17 -2 13 -5z m-1067 -14 c0 -5 -2
-10 -4 -10 -3 0 -8 5 -11 10 -3 6 -1 10 4 10 6 0 11 -4 11 -10z m-823 -26 c-3
-3 -12 -4 -19 -1 -8 3 -5 6 6 6 11 1 17 -2 13 -5z m823 -46 c0 -18 -2 -20 -9
-8 -6 8 -7 18 -5 22 9 14 14 9 14 -14z m860 -82 c0 -25 -42 -46 -92 -46 -27 0
-48 3 -48 8 1 23 25 37 72 43 29 3 56 7 61 8 4 0 7 -5 7 -13z m-930 -30 c0 -3
-4 -8 -10 -11 -5 -3 -10 -1 -10 4 0 6 5 11 10 11 6 0 10 -2 10 -4z m1959 -37
c39 -12 57 -39 26 -39 -22 0 -84 33 -90 49 -3 8 0 11 9 8 8 -3 32 -11 55 -18z
m-1982 -31 c-3 -8 -6 -5 -6 6 -1 11 2 17 5 13 3 -3 4 -12 1 -19z m-399 -46 c3
-18 -2 -20 -48 -20 -47 -1 -50 1 -39 16 25 33 40 41 62 33 12 -5 23 -17 25
-29z m1962 -8 c0 -8 -5 -12 -10 -9 -6 4 -8 11 -5 16 9 14 15 11 15 -7z m83
-69 c4 -8 3 -16 -1 -19 -4 -3 -9 4 -9 15 -2 23 3 25 10 4z m-1648 -65 c3 -5 1
-10 -4 -10 -6 0 -11 5 -11 10 0 6 2 10 4 10 3 0 8 -4 11 -10z m75 -11 c0 -5
-5 -9 -10 -9 -6 0 -15 -10 -21 -22 -9 -22 -9 -22 -4 2 2 14 5 30 5 37 0 7 7
10 15 7 8 -4 15 -10 15 -15z m1567 -1 c-3 -8 -6 -5 -6 6 -1 11 2 17 5 13 3 -3
4 -12 1 -19z m58 -28 c3 -5 1 -10 -4 -10 -6 0 -11 5 -11 10 0 6 2 10 4 10 3 0
8 -4 11 -10z m-1625 -80 c0 -5 -4 -10 -10 -10 -5 0 -10 5 -10 10 0 6 5 10 10
10 6 0 10 -4 10 -10z m8 -200 c-2 -16 0 -31 6 -33 5 -2 6 -9 2 -15 -10 -17
-46 -15 -46 3 0 8 5 15 10 15 6 0 10 11 10 23 0 22 7 37 18 37 2 0 2 -13 0
-30z m-69 -11 c12 -33 5 -57 -11 -41 -12 12 -19 72 -9 72 5 0 14 -14 20 -31z
m-1004 0 c5 -5 19 -9 31 -9 12 0 24 -7 28 -15 6 -17 -19 -21 -29 -4 -4 5 -12
8 -18 6 -14 -5 -67 23 -67 36 0 10 40 -1 55 -14z m1681 -15 c-4 -9 -9 -15 -11
-12 -3 3 -3 13 1 22 4 9 9 15 11 12 3 -3 3 -13 -1 -22z m-656 -121 c-1 -24 -2
-26 -11 -10 -5 9 -7 22 -4 27 10 17 15 11 15 -17z m-1193 5 c4 -7 8 -35 9 -61
1 -38 -2 -47 -15 -45 -9 2 -16 14 -16 28 0 19 -6 26 -24 28 -13 2 -27 -2 -31
-9 -6 -9 -12 -8 -25 5 -21 21 -7 42 39 55 44 13 54 13 63 -1z m526 5 c-7 -2
-21 -2 -30 0 -10 3 -4 5 12 5 17 0 24 -2 18 -5z m-24 -70 c21 -4 35 -13 39
-25 2 -10 8 -18 13 -18 5 0 9 -5 9 -11 0 -6 -7 -8 -16 -5 -14 5 -15 4 -4 -9 7
-8 16 -13 20 -10 5 3 28 -17 53 -45 24 -27 56 -55 71 -61 33 -16 15 -30 -29
-23 l-30 5 30 -17 c39 -22 38 -21 30 -34 -5 -8 -12 -6 -25 5 -11 10 -41 18
-74 21 -48 3 -56 1 -57 -14 -1 -16 -2 -16 -6 1 -6 23 -19 22 -26 -4 -5 -18
-11 -20 -44 -16 -21 3 -59 9 -86 12 -26 4 -45 10 -42 16 3 5 -1 6 -9 3 -11 -4
-16 0 -16 10 0 9 -6 16 -14 16 -7 0 -29 7 -47 15 -19 9 -25 14 -14 13 12 -2
32 6 47 18 21 16 24 24 15 39 -8 15 -4 24 22 47 18 16 29 33 26 38 -8 12 30
31 48 24 8 -3 21 2 28 10 8 9 23 14 34 11 11 -3 35 -9 54 -12z m-539 -28 c0
-2 -9 -9 -20 -15 -16 -9 -20 -8 -20 5 0 8 9 15 20 15 11 0 20 -2 20 -5z m50
-195 c12 -8 11 -10 -7 -10 -13 0 -23 5 -23 10 0 13 11 13 30 0z m178 -18 c2
-7 -3 -12 -11 -12 -9 0 -29 -11 -45 -25 -17 -14 -35 -25 -41 -25 -6 0 -11 -5
-11 -10 0 -7 -7 -7 -21 0 -28 16 -11 33 52 56 27 10 49 22 49 27 0 12 23 3 28
-11z m477 -72 c3 -6 -5 -10 -19 -10 -14 0 -28 5 -31 10 -3 6 5 10 19 10 14 0
28 -4 31 -10z m-565 -31 c0 -5 -6 -9 -14 -9 -7 0 -24 -8 -37 -18 -28 -21 -103
-51 -121 -48 -32 4 -15 24 50 57 47 25 79 35 96 32 14 -3 26 -9 26 -14z m470
-39 c0 -5 -7 -7 -15 -4 -8 4 -15 8 -15 10 0 2 7 4 15 4 8 0 15 -4 15 -10z m54
-72 c-5 -8 3 -9 25 -5 28 6 30 5 18 -7 -12 -12 -20 -12 -50 -2 -31 10 -33 13
-19 23 20 12 35 7 26 -9z m96 -18 c0 -5 -4 -10 -10 -10 -5 0 -10 5 -10 10 0 6
5 10 10 10 6 0 10 -4 10 -10z m1603 -54 c4 -10 0 -12 -15 -8 -15 4 -17 7 -6
13 17 11 15 11 21 -5z"/>
<path d="M8090 6040 c-8 -5 -10 -10 -5 -10 6 0 17 5 25 10 8 5 11 10 5 10 -5
0 -17 -5 -25 -10z"/>
<path d="M5868 5883 c7 -3 16 -2 19 1 4 3 -2 6 -13 5 -11 0 -14 -3 -6 -6z"/>
<path d="M5840 5849 c0 -5 5 -7 10 -4 6 3 10 8 10 11 0 2 -4 4 -10 4 -5 0 -10
-5 -10 -11z"/>
<path d="M7551 5264 c0 -11 3 -14 6 -6 3 7 2 16 -1 19 -3 4 -6 -2 -5 -13z"/>
<path d="M7920 5286 c0 -10 9 -16 21 -16 24 0 21 23 -4 28 -10 2 -17 -3 -17
-12z"/>
<path d="M7923 5243 c-20 -7 -15 -30 7 -36 11 -3 20 -12 20 -21 0 -22 17 -20
30 3 5 11 19 23 30 26 11 3 20 11 20 16 0 12 -47 12 -55 -1 -3 -5 -13 -6 -21
-3 -13 5 -13 7 -2 14 10 7 10 9 -2 8 -8 0 -21 -3 -27 -6z"/>
<path d="M8283 5203 c-26 -3 -44 -10 -47 -20 -5 -12 -2 -14 16 -8 13 4 38 9
56 12 30 5 59 25 30 21 -7 -1 -32 -3 -55 -5z"/>
<path d="M8040 5190 c0 -5 7 -10 16 -10 8 0 12 5 9 10 -3 6 -10 10 -16 10 -5
0 -9 -4 -9 -10z"/>
<path d="M7748 5143 c-23 -27 -32 -63 -16 -63 12 0 48 58 48 75 0 11 -18 4
-32 -12z"/>
<path d="M7980 5144 c-10 -12 -8 -14 14 -14 27 0 35 -14 14 -26 -8 -5 -2 -11
17 -16 23 -6 31 -3 42 12 8 11 24 20 36 20 21 1 57 21 57 33 0 8 -71 -4 -93
-15 -11 -6 -23 -6 -30 0 -24 18 -46 21 -57 6z"/>
<path d="M8045 5150 c3 -5 8 -10 11 -10 2 0 4 5 4 10 0 6 -5 10 -11 10 -5 0
-7 -4 -4 -10z"/>
<path d="M7875 5120 c-3 -5 1 -10 9 -10 9 0 16 5 16 10 0 6 -4 10 -9 10 -6 0
-13 -4 -16 -10z"/>
<path d="M8140 5073 c-14 -9 -26 -17 -28 -18 -1 -1 0 -9 4 -18 5 -13 10 -12
35 10 45 40 37 59 -11 26z"/>
<path d="M7970 5069 c0 -5 5 -7 10 -4 6 3 10 8 10 11 0 2 -4 4 -10 4 -5 0 -10
-5 -10 -11z"/>
<path d="M8450 5030 c-12 -8 -11 -10 8 -10 12 0 22 5 22 10 0 13 -11 13 -30 0z"/>
<path d="M8295 5010 c-19 -8 -19 -9 3 -9 12 -1 22 4 22 9 0 6 -1 10 -2 9 -2 0
-12 -4 -23 -9z"/>
<path d="M8208 4986 c-19 -14 -24 -41 -10 -50 5 -3 19 2 32 11 21 15 21 17 5
26 -14 8 -15 11 -4 18 8 5 10 9 4 9 -5 -1 -18 -7 -27 -14z"/>
<path d="M7985 4960 c-3 -5 -1 -10 4 -10 6 0 11 5 11 10 0 6 -2 10 -4 10 -3 0
-8 -4 -11 -10z"/>
<path d="M8294 4945 c5 -19 2 -27 -11 -33 -12 -5 -2 -9 32 -12 55 -6 98 9 109
36 4 9 5 18 4 20 -7 6 -88 -9 -88 -17 0 -5 -4 -9 -10 -9 -5 0 -10 9 -10 20 0
12 -7 20 -16 20 -12 0 -15 -6 -10 -25z"/>
<path d="M8870 4920 c-12 -8 -12 -10 2 -15 20 -8 41 2 33 16 -8 11 -16 11 -35
-1z"/>
<path d="M7442 5005 c0 -16 2 -22 5 -12 2 9 2 23 0 30 -3 6 -5 -1 -5 -18z"/>
<path d="M7205 4810 c-5 -7 6 -19 33 -34 8 -5 12 0 12 12 0 20 -36 37 -45 22z"/>
<path d="M7160 4789 c0 -5 5 -7 10 -4 6 3 10 8 10 11 0 2 -4 4 -10 4 -5 0 -10
-5 -10 -11z"/>
<path d="M7240 4745 c0 -8 -7 -15 -15 -15 -8 0 -15 -9 -15 -19 0 -23 -16 -36
-25 -21 -7 12 -25 4 -25 -12 0 -5 7 -8 15 -5 8 4 17 2 20 -4 10 -16 -26 -119
-41 -119 -8 0 -14 -7 -14 -15 0 -10 -10 -15 -30 -15 -20 0 -30 -5 -30 -15 0
-17 21 -20 36 -5 6 6 9 -17 8 -61 l-1 -70 20 31 c13 20 16 34 10 38 -6 4 -7
16 -3 27 8 19 8 19 18 -5 9 -21 11 -16 11 34 1 41 6 65 18 78 10 11 18 29 18
41 0 12 7 23 18 25 10 2 17 -3 17 -13 0 -9 5 -13 11 -9 6 3 16 0 21 -7 7 -10
7 -5 3 16 -4 17 -8 36 -8 43 0 6 -7 12 -15 12 -11 0 -13 9 -9 40 3 22 1 40 -4
40 -5 0 -9 -7 -9 -15z"/>
<path d="M7240 4554 c0 -14 5 -34 11 -45 16 -31 24 -149 9 -149 -15 0 -40 -25
-40 -40 0 -7 8 -10 20 -7 24 6 38 -11 16 -19 -9 -3 -14 -9 -11 -13 7 -12 -15
-81 -25 -81 -5 0 -7 -7 -3 -16 6 -15 8 -15 20 2 7 10 13 26 13 36 0 10 5 18
10 18 6 0 10 -6 10 -14 0 -8 3 -21 6 -30 4 -11 1 -16 -10 -16 -18 0 -22 -25
-4 -36 6 -4 16 0 23 9 6 9 23 21 38 26 23 9 26 15 24 56 -1 24 -5 45 -9 45 -5
0 -8 -4 -8 -10 0 -5 -6 -7 -14 -4 -9 4 -16 -3 -19 -18 -3 -13 -5 2 -4 32 2 48
0 55 -16 52 -18 -3 -18 -1 -4 25 20 40 37 94 26 88 -4 -3 -11 7 -14 22 -16 73
-28 113 -36 113 -5 0 -9 -12 -9 -26z"/>
<path d="M7330 4530 c0 -6 7 -13 15 -16 10 -4 12 -10 6 -18 -5 -6 -12 -30 -16
-53 -4 -24 -11 -43 -16 -43 -5 0 -9 -4 -9 -9 0 -23 36 -1 41 25 4 16 7 24 8
17 0 -6 12 -10 26 -9 28 4 41 -21 31 -60 -5 -18 -2 -24 10 -24 11 0 14 5 10
16 -3 9 -6 40 -6 70 0 41 -4 54 -15 54 -8 0 -15 9 -15 20 0 15 -7 20 -25 20
-14 0 -25 5 -25 10 0 6 -4 10 -10 10 -5 0 -10 -5 -10 -10z"/>
<path d="M7218 4456 c-3 -14 -1 -26 4 -26 14 0 22 30 11 41 -7 7 -12 2 -15
-15z"/>
<path d="M7066 4421 c-19 -21 -15 -56 6 -49 15 5 28 42 19 57 -5 8 -13 6 -25
-8z"/>
<path d="M7166 4366 c-8 -11 -12 -24 -9 -29 3 -6 11 -3 19 7 7 10 17 16 21 13
5 -3 14 3 20 13 10 15 9 18 -12 16 -13 0 -30 -10 -39 -20z"/>
<path d="M7321 4340 c0 -8 11 -23 24 -33 25 -18 25 -18 25 10 0 22 -3 25 -10
13 -8 -13 -11 -12 -24 5 -11 15 -15 16 -15 5z"/>
<path d="M7434 4267 c-8 -21 2 -35 16 -21 5 5 6 15 0 24 -8 12 -10 12 -16 -3z"/>
<path d="M7400 4246 c0 -9 5 -16 10 -16 6 0 10 4 10 9 0 6 -4 13 -10 16 -5 3
-10 -1 -10 -9z"/>
<path d="M8331 4181 c-7 -5 -9 -11 -4 -14 5 -3 15 -2 22 2 7 5 9 11 4 14 -5 3
-15 2 -22 -2z"/>
<path d="M7170 4160 c0 -5 5 -10 10 -10 6 0 10 5 10 10 0 6 -4 10 -10 10 -5 0
-10 -4 -10 -10z"/>
<path d="M7106 4125 c-3 -8 -1 -15 4 -15 6 0 10 7 10 15 0 8 -2 15 -4 15 -2 0
-6 -7 -10 -15z"/>
<path d="M7332 4128 c2 -6 10 -14 16 -16 7 -2 10 2 6 12 -7 18 -28 22 -22 4z"/>
<path d="M7162 4110 c0 -14 2 -19 5 -12 2 6 2 18 0 25 -3 6 -5 1 -5 -13z"/>
<path d="M8288 4113 c7 -3 16 -2 19 1 4 3 -2 6 -13 5 -11 0 -14 -3 -6 -6z"/>
<path d="M7266 4092 c-2 -4 -1 -14 4 -22 7 -11 12 -12 21 -3 6 6 8 16 5 22 -8
13 -23 14 -30 3z"/>
<path d="M7130 4061 c0 -20 13 -35 23 -25 7 8 -4 44 -14 44 -5 0 -9 -9 -9 -19z"/>
<path d="M7097 4063 c-12 -11 -8 -23 8 -23 8 0 15 7 15 15 0 16 -12 20 -23 8z"/>
<path d="M7330 4022 c0 -12 19 -26 26 -19 2 2 -2 10 -11 17 -9 8 -15 8 -15 2z"/>
<path d="M8000 4014 c0 -8 5 -12 10 -9 6 3 10 10 10 16 0 5 -4 9 -10 9 -5 0
-10 -7 -10 -16z"/>
<path d="M8077 3996 c-4 -10 -1 -13 8 -9 8 3 12 9 9 14 -7 12 -11 11 -17 -5z"/>
<path d="M7281 3984 c0 -11 3 -14 6 -6 3 7 2 16 -1 19 -3 4 -6 -2 -5 -13z"/>
<path d="M7254 3945 c-3 -8 -3 -19 1 -24 4 -7 0 -8 -10 -4 -15 5 -15 3 -4 -16
16 -25 29 -27 29 -6 0 8 6 15 13 15 8 0 8 3 -2 9 -8 5 -11 16 -8 25 4 9 2 16
-4 16 -5 0 -12 -7 -15 -15z"/>
<path d="M8098 3873 c7 -3 16 -2 19 1 4 3 -2 6 -13 5 -11 0 -14 -3 -6 -6z"/>
<path d="M7113 3795 c-3 -9 -3 -19 1 -22 3 -4 6 1 6 10 0 8 6 18 13 20 9 4 9
6 -1 6 -7 1 -15 -6 -19 -14z"/>
<path d="M7665 3790 c3 -5 8 -10 11 -10 2 0 4 5 4 10 0 6 -5 10 -11 10 -5 0
-7 -4 -4 -10z"/>
<path d="M7710 3720 c0 -5 5 -10 10 -10 6 0 10 5 10 10 0 6 -4 10 -10 10 -5 0
-10 -4 -10 -10z"/>
<path d="M7717 3639 c7 -7 15 -10 18 -7 3 3 -2 9 -12 12 -14 6 -15 5 -6 -5z"/>
<path d="M8418 3624 c-14 -13 3 -24 38 -24 19 0 34 5 34 10 0 6 -6 10 -12 10
-7 0 -22 3 -33 6 -11 3 -24 2 -27 -2z"/>
<path d="M6970 3501 c0 -5 7 -17 15 -25 9 -9 15 -23 13 -32 -2 -9 2 -19 9 -21
13 -5 8 28 -10 65 -10 22 -27 30 -27 13z"/>
<path d="M7078 3414 c-8 -8 3 -44 13 -44 5 0 8 9 6 20 -4 23 -11 32 -19 24z"/>
<path d="M8220 3410 c0 -5 5 -10 10 -10 6 0 10 5 10 10 0 6 -4 10 -10 10 -5 0
-10 -4 -10 -10z"/>
<path d="M7030 3392 c0 -12 19 -26 26 -19 2 2 -2 10 -11 17 -9 8 -15 8 -15 2z"/>
<path d="M7870 3379 c0 -5 5 -7 10 -4 6 3 10 8 10 11 0 2 -4 4 -10 4 -5 0 -10
-5 -10 -11z"/>
<path d="M8025 3353 c-29 -8 -81 -46 -67 -51 6 -2 32 9 57 23 57 34 59 40 10
28z"/>
<path d="M8055 3290 c-16 -7 -17 -9 -3 -9 9 -1 20 4 23 9 7 11 7 11 -20 0z"/>
<path d="M6865 3050 c-3 -5 -1 -10 4 -10 6 0 11 5 11 10 0 6 -2 10 -4 10 -3 0
-8 -4 -11 -10z"/>
<path d="M8720 2960 c0 -22 5 -40 10 -40 6 0 10 18 10 40 0 22 -4 40 -10 40
-5 0 -10 -18 -10 -40z"/>
<path d="M8483 2715 c0 -22 2 -30 4 -17 2 12 2 30 0 40 -3 9 -5 -1 -4 -23z"/>
</g>
</svg>
